<mxfile host="app.diagrams.net" modified="2024-01-28T07:49:22.301Z" agent="Mozilla/5.0 (Macintosh; Intel Mac OS X 10_15_7) AppleWebKit/537.36 (KHTML, like Gecko) Chrome/120.0.0.0 Safari/537.36" etag="qmK8AuKf4T-uaEZ8W4fZ" version="23.0.2" type="device">
  <diagram name="Page-1" id="2cc2dc42-3aac-f2a9-1cec-7a8b7cbee084">
    <mxGraphModel dx="1834" dy="1208" grid="1" gridSize="10" guides="1" tooltips="1" connect="1" arrows="1" fold="1" page="1" pageScale="1" pageWidth="1100" pageHeight="850" background="#ffffff" math="0" shadow="0">
      <root>
        <mxCell id="0" />
        <mxCell id="1" parent="0" />
        <mxCell id="7026571954dc6520-1" value="" style="strokeWidth=1;shadow=0;dashed=0;align=center;html=1;shape=mxgraph.mockup.containers.browserWindow;rSize=0;mainText=,;recursiveResize=0;rounded=0;labelBackgroundColor=none;fontFamily=Helvetica;fontSize=12;fillColor=#f5f5f5;fontColor=#333333;strokeColor=#666666;" parent="1" vertex="1">
          <mxGeometry x="121" y="60" width="1280" height="720" as="geometry" />
        </mxCell>
        <mxCell id="7026571954dc6520-2" value="" style="strokeWidth=1;shadow=0;dashed=0;align=center;html=1;shape=mxgraph.mockup.containers.anchor;fontSize=17;fontColor=#666666;align=left;" parent="7026571954dc6520-1" vertex="1">
          <mxGeometry x="60" y="12" width="110" height="26" as="geometry" />
        </mxCell>
        <mxCell id="7026571954dc6520-3" value="" style="strokeWidth=1;shadow=0;dashed=0;align=center;html=1;shape=mxgraph.mockup.containers.anchor;rSize=0;fontSize=17;fontColor=#666666;align=left;" parent="7026571954dc6520-1" vertex="1">
          <mxGeometry x="130" y="60" width="250" height="26" as="geometry" />
        </mxCell>
        <mxCell id="MtYATLDpqeaaa2HfLT5w-173" value="" style="group;fontSize=13;" parent="7026571954dc6520-1" vertex="1" connectable="0">
          <mxGeometry x="459" y="130" width="390" height="564.29" as="geometry" />
        </mxCell>
        <mxCell id="MtYATLDpqeaaa2HfLT5w-6" value="" style="rounded=1;whiteSpace=wrap;html=1;fontFamily=Helvetica;fontSize=13;arcSize=4;" parent="MtYATLDpqeaaa2HfLT5w-173" vertex="1">
          <mxGeometry width="360" height="411.42857142857144" as="geometry" />
        </mxCell>
        <mxCell id="RPIttkBjxdmQabYXG7RO-427" value="&lt;font style=&quot;font-size: 24px;&quot;&gt;ログイン&lt;/font&gt;" style="text;html=1;strokeColor=none;fillColor=none;align=center;verticalAlign=middle;whiteSpace=wrap;rounded=0;fontFamily=Helvetica;fontSize=13;" parent="MtYATLDpqeaaa2HfLT5w-173" vertex="1">
          <mxGeometry x="68.30999999999999" y="22.857142857142858" width="224.99999999999997" height="51.42857142857143" as="geometry" />
        </mxCell>
        <mxCell id="RPIttkBjxdmQabYXG7RO-430" value="&lt;font style=&quot;font-size: 11px;&quot;&gt;メール&lt;/font&gt;" style="text;html=1;strokeColor=none;fillColor=none;align=left;verticalAlign=middle;whiteSpace=wrap;rounded=0;fontFamily=Helvetica;fontSize=11;" parent="MtYATLDpqeaaa2HfLT5w-173" vertex="1">
          <mxGeometry x="50.63142857142856" y="142.85714285714286" width="77.14285714285714" height="34.285714285714285" as="geometry" />
        </mxCell>
        <mxCell id="RPIttkBjxdmQabYXG7RO-433" value="&lt;font style=&quot;font-size: 11px;&quot;&gt;パスワード&lt;/font&gt;" style="text;html=1;strokeColor=none;fillColor=none;align=left;verticalAlign=middle;whiteSpace=wrap;rounded=0;fontFamily=Helvetica;fontSize=11;" parent="MtYATLDpqeaaa2HfLT5w-173" vertex="1">
          <mxGeometry x="52.23857142857142" y="208.57142857142858" width="77.14285714285714" height="34.285714285714285" as="geometry" />
        </mxCell>
        <mxCell id="1DlXf2g0iJgFC9eiqlfr-59" value="&lt;span style=&quot;font-size: 12px;&quot;&gt;&lt;u style=&quot;font-size: 12px;&quot;&gt;&lt;font color=&quot;#0000ff&quot; style=&quot;font-size: 12px;&quot;&gt;パスワードを忘れた方&lt;/font&gt;&lt;/u&gt;&lt;/span&gt;" style="text;html=1;strokeColor=none;fillColor=none;align=right;verticalAlign=middle;whiteSpace=wrap;rounded=0;fontFamily=Helvetica;fontSize=12;" parent="MtYATLDpqeaaa2HfLT5w-173" vertex="1">
          <mxGeometry x="174.38142857142856" y="291.42857142857144" width="135" height="34.285714285714285" as="geometry" />
        </mxCell>
        <mxCell id="1DlXf2g0iJgFC9eiqlfr-62" value="&lt;span style=&quot;font-size: 13px;&quot;&gt;または&lt;/span&gt;" style="text;html=1;strokeColor=none;fillColor=none;align=center;verticalAlign=middle;whiteSpace=wrap;rounded=0;fontFamily=Helvetica;fontSize=13;" parent="MtYATLDpqeaaa2HfLT5w-173" vertex="1">
          <mxGeometry x="75.53571428571428" y="422.85714285714283" width="199.28571428571428" height="34.285714285714285" as="geometry" />
        </mxCell>
        <mxCell id="1DlXf2g0iJgFC9eiqlfr-63" value="&lt;font color=&quot;#000033&quot; style=&quot;font-size: 13px;&quot;&gt;Googleでログイン&lt;/font&gt;" style="rounded=1;whiteSpace=wrap;html=1;fillColor=#f8cecc;strokeColor=#b85450;fontFamily=Helvetica;fontSize=13;" parent="MtYATLDpqeaaa2HfLT5w-173" vertex="1">
          <mxGeometry x="80.35714285714286" y="468.5714285714286" width="189.6428571428571" height="34.285714285714285" as="geometry" />
        </mxCell>
        <mxCell id="1DlXf2g0iJgFC9eiqlfr-105" value="&lt;span style=&quot;font-size: 13px;&quot;&gt;&lt;font color=&quot;#0000ff&quot; style=&quot;font-size: 13px;&quot;&gt;&lt;u style=&quot;font-size: 13px;&quot;&gt;サインアップ&lt;/u&gt;&lt;/font&gt;&lt;/span&gt;" style="text;html=1;strokeColor=none;fillColor=none;align=center;verticalAlign=middle;whiteSpace=wrap;rounded=0;fontFamily=Helvetica;fontSize=13;" parent="MtYATLDpqeaaa2HfLT5w-173" vertex="1">
          <mxGeometry x="203.3145231499802" y="510.0042857142858" width="106.07142857142857" height="34.285714285714285" as="geometry" />
        </mxCell>
        <mxCell id="MtYATLDpqeaaa2HfLT5w-1" value="" style="rounded=1;whiteSpace=wrap;html=1;fontFamily=Helvetica;fontSize=11;" parent="MtYATLDpqeaaa2HfLT5w-173" vertex="1">
          <mxGeometry x="52.23857142857142" y="174.28571428571428" width="257.1428571428571" height="34.285714285714285" as="geometry" />
        </mxCell>
        <mxCell id="RPIttkBjxdmQabYXG7RO-431" value="&lt;font color=&quot;#999999&quot; style=&quot;font-size: 11px;&quot;&gt;abc@gmail.com&lt;/font&gt;" style="text;html=1;strokeColor=none;fillColor=none;align=left;verticalAlign=middle;whiteSpace=wrap;rounded=0;fontFamily=Helvetica;fontSize=11;" parent="MtYATLDpqeaaa2HfLT5w-173" vertex="1">
          <mxGeometry x="61.881428571428565" y="177.14285714285714" width="244.28571428571425" height="28.571428571428573" as="geometry" />
        </mxCell>
        <mxCell id="MtYATLDpqeaaa2HfLT5w-2" value="" style="rounded=1;whiteSpace=wrap;html=1;fontFamily=Helvetica;fontSize=11;" parent="MtYATLDpqeaaa2HfLT5w-173" vertex="1">
          <mxGeometry x="52.23857142857142" y="240" width="257.1428571428571" height="34.285714285714285" as="geometry" />
        </mxCell>
        <mxCell id="MtYATLDpqeaaa2HfLT5w-3" value="&lt;font color=&quot;#999999&quot; style=&quot;font-size: 11px;&quot;&gt;＊＊＊＊＊＊＊＊＊&lt;/font&gt;" style="text;html=1;strokeColor=none;fillColor=none;align=left;verticalAlign=middle;whiteSpace=wrap;rounded=0;fontFamily=Helvetica;fontSize=11;" parent="MtYATLDpqeaaa2HfLT5w-173" vertex="1">
          <mxGeometry x="61.881428571428565" y="242.85714285714286" width="244.28571428571425" height="28.571428571428573" as="geometry" />
        </mxCell>
        <mxCell id="MtYATLDpqeaaa2HfLT5w-5" value="ログイン" style="rounded=1;whiteSpace=wrap;html=1;fillColor=#f5f5f5;strokeColor=#666666;fontFamily=Helvetica;fontColor=#333333;fontSize=13;" parent="MtYATLDpqeaaa2HfLT5w-173" vertex="1">
          <mxGeometry x="92.41714285714285" y="342.8571428571429" width="167.1428571428571" height="40" as="geometry" />
        </mxCell>
        <mxCell id="MtYATLDpqeaaa2HfLT5w-7" value="" style="line;strokeWidth=1;html=1;fontFamily=Helvetica;fontSize=13;" parent="MtYATLDpqeaaa2HfLT5w-173" vertex="1">
          <mxGeometry x="27.32142857142857" y="434.28571428571433" width="115.71428571428571" height="11.428571428571429" as="geometry" />
        </mxCell>
        <mxCell id="MtYATLDpqeaaa2HfLT5w-8" value="" style="line;strokeWidth=1;html=1;fontFamily=Helvetica;fontSize=13;" parent="MtYATLDpqeaaa2HfLT5w-173" vertex="1">
          <mxGeometry x="204.10714285714283" y="434.28571428571433" width="115.71428571428571" height="11.428571428571429" as="geometry" />
        </mxCell>
        <mxCell id="MtYATLDpqeaaa2HfLT5w-17" value="" style="rounded=1;whiteSpace=wrap;html=1;fillColor=#f8cecc;strokeColor=#b85450;fontSize=13;" parent="MtYATLDpqeaaa2HfLT5w-173" vertex="1">
          <mxGeometry x="52.23857142857142" y="91.42857142857143" width="257.1428571428571" height="51.42857142857143" as="geometry" />
        </mxCell>
        <mxCell id="MtYATLDpqeaaa2HfLT5w-20" value="&lt;font style=&quot;font-size: 13px;&quot;&gt;ユーザー名またはパスワードが違います。&lt;/font&gt;" style="text;html=1;strokeColor=none;fillColor=none;align=left;verticalAlign=middle;whiteSpace=wrap;rounded=0;fontSize=13;" parent="MtYATLDpqeaaa2HfLT5w-173" vertex="1">
          <mxGeometry x="61.881428571428565" y="100.00000000000001" width="218.57142857142856" height="34.285714285714285" as="geometry" />
        </mxCell>
        <mxCell id="MtYATLDpqeaaa2HfLT5w-21" value="" style="shape=mxgraph.sysml.x;fontSize=13;" parent="MtYATLDpqeaaa2HfLT5w-173" vertex="1">
          <mxGeometry x="280.4528571428571" y="111.42857142857143" width="12.857142857142856" height="11.428571428571429" as="geometry" />
        </mxCell>
        <mxCell id="1DlXf2g0iJgFC9eiqlfr-65" value="&lt;span style=&quot;font-size: 13px;&quot;&gt;アカウントを持ってない ?&lt;/span&gt;" style="text;html=1;strokeColor=none;fillColor=none;align=center;verticalAlign=middle;whiteSpace=wrap;rounded=0;fontFamily=Helvetica;fontSize=13;" parent="7026571954dc6520-1" vertex="1">
          <mxGeometry x="510.57142857142856" y="640.0042857142857" width="157.9375" height="34.285714285714285" as="geometry" />
        </mxCell>
        <mxCell id="RPIttkBjxdmQabYXG7RO-2" value="" style="strokeWidth=1;shadow=0;dashed=0;align=center;html=1;shape=mxgraph.mockup.containers.browserWindow;rSize=0;strokeColor=#666666;mainText=,;recursiveResize=0;rounded=0;labelBackgroundColor=none;fontFamily=Verdana;fontSize=12;fillColor=#f5f5f5;fontColor=#333333;" parent="1" vertex="1">
          <mxGeometry x="1540" y="60" width="1280" height="720" as="geometry" />
        </mxCell>
        <mxCell id="RPIttkBjxdmQabYXG7RO-3" value="" style="strokeWidth=1;shadow=0;dashed=0;align=center;html=1;shape=mxgraph.mockup.containers.anchor;fontSize=17;fontColor=#666666;align=left;" parent="RPIttkBjxdmQabYXG7RO-2" vertex="1">
          <mxGeometry x="60" y="12" width="110" height="26" as="geometry" />
        </mxCell>
        <mxCell id="RPIttkBjxdmQabYXG7RO-4" value="" style="strokeWidth=1;shadow=0;dashed=0;align=center;html=1;shape=mxgraph.mockup.containers.anchor;rSize=0;fontSize=17;fontColor=#666666;align=left;" parent="RPIttkBjxdmQabYXG7RO-2" vertex="1">
          <mxGeometry x="130" y="60" width="250" height="26" as="geometry" />
        </mxCell>
        <mxCell id="MtYATLDpqeaaa2HfLT5w-175" value="" style="group" parent="RPIttkBjxdmQabYXG7RO-2" vertex="1" connectable="0">
          <mxGeometry x="500" y="130" width="360" height="560" as="geometry" />
        </mxCell>
        <mxCell id="MtYATLDpqeaaa2HfLT5w-11" value="" style="rounded=1;whiteSpace=wrap;html=1;fontFamily=Helvetica;arcSize=4;" parent="MtYATLDpqeaaa2HfLT5w-175" vertex="1">
          <mxGeometry width="360" height="407.27272727272725" as="geometry" />
        </mxCell>
        <mxCell id="RPIttkBjxdmQabYXG7RO-439" value="&lt;span style=&quot;font-size: 24px;&quot;&gt;新登録&lt;/span&gt;" style="text;html=1;strokeColor=none;fillColor=none;align=center;verticalAlign=middle;whiteSpace=wrap;rounded=0;" parent="MtYATLDpqeaaa2HfLT5w-175" vertex="1">
          <mxGeometry x="93.85714285714286" y="10.18181818181818" width="160.71428571428572" height="66.18181818181817" as="geometry" />
        </mxCell>
        <mxCell id="1DlXf2g0iJgFC9eiqlfr-114" value="&lt;font style=&quot;font-size: 13px;&quot;&gt;Googleでサインイン&lt;/font&gt;" style="rounded=1;whiteSpace=wrap;html=1;fillColor=#f8cecc;strokeColor=#b85450;fontSize=13;" parent="MtYATLDpqeaaa2HfLT5w-175" vertex="1">
          <mxGeometry x="74.25" y="468.3636363636363" width="201.21428571428572" height="30.545454545454543" as="geometry" />
        </mxCell>
        <mxCell id="MtYATLDpqeaaa2HfLT5w-14" value="&lt;span style=&quot;font-size: 13px;&quot;&gt;または&lt;/span&gt;" style="text;html=1;strokeColor=none;fillColor=none;align=center;verticalAlign=middle;whiteSpace=wrap;rounded=0;fontFamily=Helvetica;fontSize=13;" parent="MtYATLDpqeaaa2HfLT5w-175" vertex="1">
          <mxGeometry x="76.17857142857143" y="427.63636363636357" width="199.2857142857143" height="30.545454545454543" as="geometry" />
        </mxCell>
        <mxCell id="MtYATLDpqeaaa2HfLT5w-15" value="" style="line;strokeWidth=1;html=1;fontFamily=Helvetica;" parent="MtYATLDpqeaaa2HfLT5w-175" vertex="1">
          <mxGeometry x="27.964285714285715" y="437.81818181818176" width="115.71428571428572" height="10.18181818181818" as="geometry" />
        </mxCell>
        <mxCell id="MtYATLDpqeaaa2HfLT5w-16" value="" style="line;strokeWidth=1;html=1;fontFamily=Helvetica;" parent="MtYATLDpqeaaa2HfLT5w-175" vertex="1">
          <mxGeometry x="204.75000000000003" y="437.81818181818176" width="115.71428571428572" height="10.18181818181818" as="geometry" />
        </mxCell>
        <mxCell id="MtYATLDpqeaaa2HfLT5w-24" value="&lt;font style=&quot;font-size: 11px;&quot;&gt;ユーザー名&lt;/font&gt;" style="text;html=1;strokeColor=none;fillColor=none;align=left;verticalAlign=middle;whiteSpace=wrap;rounded=0;fontFamily=Helvetica;fontSize=11;" parent="MtYATLDpqeaaa2HfLT5w-175" vertex="1">
          <mxGeometry x="50.464285714285715" y="63.63636363636363" width="77.14285714285715" height="30.545454545454543" as="geometry" />
        </mxCell>
        <mxCell id="MtYATLDpqeaaa2HfLT5w-25" value="" style="rounded=1;whiteSpace=wrap;html=1;fontFamily=Helvetica;" parent="MtYATLDpqeaaa2HfLT5w-175" vertex="1">
          <mxGeometry x="52.07142857142858" y="91.63636363636363" width="257.14285714285717" height="30.545454545454543" as="geometry" />
        </mxCell>
        <mxCell id="MtYATLDpqeaaa2HfLT5w-26" value="&lt;font color=&quot;#999999&quot;&gt;&lt;span style=&quot;font-size: 11px;&quot;&gt;sotarokun&lt;/span&gt;&lt;/font&gt;" style="text;html=1;strokeColor=none;fillColor=none;align=left;verticalAlign=middle;whiteSpace=wrap;rounded=0;fontFamily=Helvetica;" parent="MtYATLDpqeaaa2HfLT5w-175" vertex="1">
          <mxGeometry x="61.71428571428572" y="94.18181818181817" width="244.2857142857143" height="25.454545454545453" as="geometry" />
        </mxCell>
        <mxCell id="MtYATLDpqeaaa2HfLT5w-40" value="&lt;font style=&quot;font-size: 13px;&quot;&gt;バリデーションエラー&lt;/font&gt;" style="rounded=1;whiteSpace=wrap;html=1;fillColor=#f8cecc;strokeColor=#b85450;" parent="MtYATLDpqeaaa2HfLT5w-175" vertex="1">
          <mxGeometry x="52.07142857142858" y="127.27272727272727" width="257.14285714285717" height="22.909090909090907" as="geometry" />
        </mxCell>
        <mxCell id="MtYATLDpqeaaa2HfLT5w-44" value="&lt;font style=&quot;font-size: 11px;&quot;&gt;メール&lt;/font&gt;" style="text;html=1;strokeColor=none;fillColor=none;align=left;verticalAlign=middle;whiteSpace=wrap;rounded=0;fontFamily=Helvetica;fontSize=11;" parent="MtYATLDpqeaaa2HfLT5w-175" vertex="1">
          <mxGeometry x="50.63142857142857" y="150.18181818181816" width="77.14285714285715" height="30.545454545454543" as="geometry" />
        </mxCell>
        <mxCell id="MtYATLDpqeaaa2HfLT5w-45" value="" style="rounded=1;whiteSpace=wrap;html=1;fontFamily=Helvetica;" parent="MtYATLDpqeaaa2HfLT5w-175" vertex="1">
          <mxGeometry x="52.238571428571426" y="178.18181818181816" width="257.14285714285717" height="30.545454545454543" as="geometry" />
        </mxCell>
        <mxCell id="MtYATLDpqeaaa2HfLT5w-46" value="&lt;font color=&quot;#999999&quot; style=&quot;font-size: 11px;&quot;&gt;abc@gmail.com&lt;/font&gt;" style="text;html=1;strokeColor=none;fillColor=none;align=left;verticalAlign=middle;whiteSpace=wrap;rounded=0;fontFamily=Helvetica;" parent="MtYATLDpqeaaa2HfLT5w-175" vertex="1">
          <mxGeometry x="61.88142857142857" y="180.72727272727272" width="244.2857142857143" height="25.454545454545453" as="geometry" />
        </mxCell>
        <mxCell id="MtYATLDpqeaaa2HfLT5w-47" value="&lt;font style=&quot;font-size: 13px;&quot;&gt;バリデーションエラー&lt;/font&gt;" style="rounded=1;whiteSpace=wrap;html=1;fillColor=#f8cecc;strokeColor=#b85450;" parent="MtYATLDpqeaaa2HfLT5w-175" vertex="1">
          <mxGeometry x="52.238571428571426" y="213.81818181818178" width="257.14285714285717" height="22.909090909090907" as="geometry" />
        </mxCell>
        <mxCell id="MtYATLDpqeaaa2HfLT5w-52" value="&lt;font style=&quot;font-size: 11px;&quot;&gt;パスワード&lt;/font&gt;" style="text;html=1;strokeColor=none;fillColor=none;align=left;verticalAlign=middle;whiteSpace=wrap;rounded=0;fontFamily=Helvetica;fontSize=11;" parent="MtYATLDpqeaaa2HfLT5w-175" vertex="1">
          <mxGeometry x="51.26142857142858" y="236.7272727272727" width="77.14285714285715" height="30.545454545454543" as="geometry" />
        </mxCell>
        <mxCell id="MtYATLDpqeaaa2HfLT5w-53" value="" style="rounded=1;whiteSpace=wrap;html=1;fontFamily=Helvetica;" parent="MtYATLDpqeaaa2HfLT5w-175" vertex="1">
          <mxGeometry x="52.868571428571435" y="264.7272727272727" width="257.14285714285717" height="30.545454545454543" as="geometry" />
        </mxCell>
        <mxCell id="MtYATLDpqeaaa2HfLT5w-54" value="&lt;font style=&quot;font-size: 11px;&quot;&gt;＊＊＊＊＊＊＊＊＊&lt;/font&gt;" style="text;html=1;strokeColor=none;fillColor=none;align=left;verticalAlign=middle;whiteSpace=wrap;rounded=0;fontFamily=Helvetica;fontColor=#999999;" parent="MtYATLDpqeaaa2HfLT5w-175" vertex="1">
          <mxGeometry x="62.51142857142858" y="267.27272727272725" width="244.2857142857143" height="25.454545454545453" as="geometry" />
        </mxCell>
        <mxCell id="MtYATLDpqeaaa2HfLT5w-55" value="&lt;font style=&quot;font-size: 13px;&quot;&gt;バリデーションエラー&lt;/font&gt;" style="rounded=1;whiteSpace=wrap;html=1;fillColor=#f8cecc;strokeColor=#b85450;" parent="MtYATLDpqeaaa2HfLT5w-175" vertex="1">
          <mxGeometry x="52.868571428571435" y="300.3636363636363" width="257.14285714285717" height="22.909090909090907" as="geometry" />
        </mxCell>
        <mxCell id="MtYATLDpqeaaa2HfLT5w-78" value="登録" style="rounded=1;whiteSpace=wrap;html=1;fillColor=#f5f5f5;fontColor=#333333;strokeColor=#666666;fontFamily=Helvetica;fontSize=13;" parent="MtYATLDpqeaaa2HfLT5w-175" vertex="1">
          <mxGeometry x="93.85714285714286" y="346.18181818181813" width="167.14285714285717" height="35.63636363636363" as="geometry" />
        </mxCell>
        <mxCell id="1DlXf2g0iJgFC9eiqlfr-108" value="&lt;span style=&quot;font-size: 13px;&quot;&gt;アカウントを持っている方&lt;br style=&quot;font-size: 13px;&quot;&gt;&lt;/span&gt;" style="text;html=1;strokeColor=none;fillColor=none;align=center;verticalAlign=middle;whiteSpace=wrap;rounded=0;fontSize=13;" parent="RPIttkBjxdmQabYXG7RO-2" vertex="1">
          <mxGeometry x="561.0685714285714" y="640.0045454545455" width="160.71428571428572" height="30.545454545454543" as="geometry" />
        </mxCell>
        <mxCell id="1DlXf2g0iJgFC9eiqlfr-109" value="&lt;font color=&quot;#0000ff&quot; style=&quot;font-size: 13px;&quot;&gt;&lt;span style=&quot;font-size: 13px;&quot;&gt;&lt;u style=&quot;font-size: 13px;&quot;&gt;サインイン&lt;/u&gt;&lt;/span&gt;&lt;/font&gt;" style="text;html=1;strokeColor=none;fillColor=none;align=center;verticalAlign=middle;whiteSpace=wrap;rounded=0;fontSize=13;" parent="RPIttkBjxdmQabYXG7RO-2" vertex="1">
          <mxGeometry x="718.5685714285714" y="640.0045454545455" width="80.35714285714286" height="30.545454545454543" as="geometry" />
        </mxCell>
        <mxCell id="MtYATLDpqeaaa2HfLT5w-174" value="" style="group" parent="1" vertex="1" connectable="0">
          <mxGeometry x="2960" y="40" width="340" height="190" as="geometry" />
        </mxCell>
        <mxCell id="MtYATLDpqeaaa2HfLT5w-171" value="" style="whiteSpace=wrap;html=1;align=left;" parent="MtYATLDpqeaaa2HfLT5w-174" vertex="1">
          <mxGeometry width="340" height="190" as="geometry" />
        </mxCell>
        <mxCell id="MtYATLDpqeaaa2HfLT5w-172" value="&lt;div style=&quot;border-color: var(--border-color); text-align: left; font-size: 14px;&quot;&gt;&lt;font style=&quot;font-size: 14px;&quot;&gt;HD: 1280 x 720&lt;br&gt;&lt;/font&gt;&lt;/div&gt;&lt;div style=&quot;border-color: var(--border-color); text-align: left; font-size: 14px;&quot;&gt;&lt;font style=&quot;border-color: var(--border-color); font-size: 14px;&quot;&gt;Full HD (FHD): 1920 x 1080&lt;/font&gt;&lt;/div&gt;&lt;div style=&quot;border-color: var(--border-color); text-align: left; font-size: 14px;&quot;&gt;&lt;font style=&quot;border-color: var(--border-color); font-size: 14px;&quot;&gt;Quad HD (QHD): 2560 x 1440&lt;/font&gt;&lt;/div&gt;&lt;div style=&quot;border-color: var(--border-color); text-align: left; font-size: 14px;&quot;&gt;&lt;font style=&quot;border-color: var(--border-color); font-size: 14px;&quot;&gt;Ultra HD (UHD) / 4K: 3840 x 2160&lt;/font&gt;&lt;/div&gt;" style="text;html=1;strokeColor=none;fillColor=none;align=center;verticalAlign=middle;whiteSpace=wrap;rounded=0;" parent="MtYATLDpqeaaa2HfLT5w-174" vertex="1">
          <mxGeometry x="10" y="15" width="330" height="160" as="geometry" />
        </mxCell>
        <mxCell id="1DlXf2g0iJgFC9eiqlfr-33" value="" style="strokeWidth=1;shadow=0;dashed=0;align=center;html=1;shape=mxgraph.mockup.containers.browserWindow;rSize=0;mainText=,;recursiveResize=0;rounded=0;labelBackgroundColor=none;fontFamily=Verdana;fontSize=13;fillColor=#f5f5f5;fontColor=#333333;strokeColor=#666666;" parent="1" vertex="1">
          <mxGeometry x="130" y="860" width="1280" height="720" as="geometry" />
        </mxCell>
        <mxCell id="1DlXf2g0iJgFC9eiqlfr-34" value="" style="strokeWidth=1;shadow=0;dashed=0;align=center;html=1;shape=mxgraph.mockup.containers.anchor;fontSize=17;fontColor=#666666;align=left;" parent="1DlXf2g0iJgFC9eiqlfr-33" vertex="1">
          <mxGeometry x="60" y="12" width="110" height="26" as="geometry" />
        </mxCell>
        <mxCell id="1DlXf2g0iJgFC9eiqlfr-35" value="" style="strokeWidth=1;shadow=0;dashed=0;align=center;html=1;shape=mxgraph.mockup.containers.anchor;rSize=0;fontSize=17;fontColor=#666666;align=left;" parent="1DlXf2g0iJgFC9eiqlfr-33" vertex="1">
          <mxGeometry x="130" y="60" width="250" height="26" as="geometry" />
        </mxCell>
        <mxCell id="MtYATLDpqeaaa2HfLT5w-214" value="" style="group" parent="1DlXf2g0iJgFC9eiqlfr-33" vertex="1" connectable="0">
          <mxGeometry x="410" y="160" width="430" height="450" as="geometry" />
        </mxCell>
        <mxCell id="MtYATLDpqeaaa2HfLT5w-189" value="" style="rounded=1;whiteSpace=wrap;html=1;fontFamily=Helvetica;fontSize=13;arcSize=4;" parent="MtYATLDpqeaaa2HfLT5w-214" vertex="1">
          <mxGeometry width="430" height="390" as="geometry" />
        </mxCell>
        <mxCell id="1DlXf2g0iJgFC9eiqlfr-37" value="&lt;span style=&quot;font-size: 24px;&quot;&gt;パスワードリセット&lt;br&gt;&lt;/span&gt;" style="text;html=1;strokeColor=none;fillColor=none;align=left;verticalAlign=middle;whiteSpace=wrap;rounded=0;" parent="MtYATLDpqeaaa2HfLT5w-214" vertex="1">
          <mxGeometry x="44.10256410256409" y="32.869107908063825" width="266.999306999307" height="75.16526770051483" as="geometry" />
        </mxCell>
        <mxCell id="1DlXf2g0iJgFC9eiqlfr-116" value="&lt;font style=&quot;font-size: 12px;&quot;&gt;メールアドレスを入力してパスワードをリセットするリンクを送信してください。&lt;/font&gt;" style="text;html=1;strokeColor=none;fillColor=none;align=left;verticalAlign=middle;whiteSpace=wrap;rounded=0;fontSize=11;" parent="MtYATLDpqeaaa2HfLT5w-214" vertex="1">
          <mxGeometry x="44.10256410256409" y="113.81476431632248" width="331.4374514374515" height="34.68786521231009" as="geometry" />
        </mxCell>
        <mxCell id="1DlXf2g0iJgFC9eiqlfr-124" value="&lt;font color=&quot;#999999&quot; style=&quot;font-size: 13px;&quot; face=&quot;Helvetica&quot;&gt;abc@gmail.com&lt;/font&gt;" style="text;html=1;strokeColor=none;fillColor=none;align=left;verticalAlign=middle;whiteSpace=wrap;rounded=0;fontSize=13;" parent="MtYATLDpqeaaa2HfLT5w-214" vertex="1">
          <mxGeometry x="44.10256410256409" y="177.4176996398231" width="286.07068607068607" height="28.90971834635186" as="geometry" />
        </mxCell>
        <mxCell id="1DlXf2g0iJgFC9eiqlfr-128" value="" style="line;strokeWidth=1;html=1;fontSize=13;" parent="MtYATLDpqeaaa2HfLT5w-214" vertex="1">
          <mxGeometry x="44.10256410256409" y="206.33034670821965" width="331.4374514374515" height="11.558969614335801" as="geometry" />
        </mxCell>
        <mxCell id="1DlXf2g0iJgFC9eiqlfr-152" value="&lt;font color=&quot;#0000ff&quot; style=&quot;font-size: 13px;&quot;&gt;&lt;span style=&quot;font-size: 13px;&quot;&gt;&lt;u style=&quot;font-size: 13px;&quot;&gt;ログインに戻る&lt;/u&gt;&lt;/span&gt;&lt;/font&gt;" style="text;html=1;strokeColor=none;fillColor=none;align=left;verticalAlign=middle;whiteSpace=wrap;rounded=0;fontSize=13;" parent="MtYATLDpqeaaa2HfLT5w-214" vertex="1">
          <mxGeometry x="44.10256410256409" y="321.9638683287884" width="154.35897435897436" height="34.68786521231009" as="geometry" />
        </mxCell>
        <mxCell id="MtYATLDpqeaaa2HfLT5w-101" value="送信" style="rounded=1;whiteSpace=wrap;html=1;fillColor=#f5f5f5;strokeColor=#666666;fontFamily=Helvetica;fontColor=#333333;fontSize=13;" parent="MtYATLDpqeaaa2HfLT5w-214" vertex="1">
          <mxGeometry x="44.10256410256409" y="252.5881379041682" width="331.4374514374515" height="40.47282820412933" as="geometry" />
        </mxCell>
        <mxCell id="MtYATLDpqeaaa2HfLT5w-215" value="" style="strokeWidth=1;shadow=0;dashed=0;align=center;html=1;shape=mxgraph.mockup.containers.browserWindow;rSize=0;strokeColor=#666666;mainText=,;recursiveResize=0;rounded=0;labelBackgroundColor=none;fontFamily=Verdana;fontSize=13;fillColor=#f5f5f5;fontColor=#333333;" parent="1" vertex="1">
          <mxGeometry x="1540" y="860" width="1280" height="720" as="geometry" />
        </mxCell>
        <mxCell id="MtYATLDpqeaaa2HfLT5w-216" value="" style="strokeWidth=1;shadow=0;dashed=0;align=center;html=1;shape=mxgraph.mockup.containers.anchor;fontSize=17;fontColor=#666666;align=left;" parent="MtYATLDpqeaaa2HfLT5w-215" vertex="1">
          <mxGeometry x="60" y="12" width="110" height="26" as="geometry" />
        </mxCell>
        <mxCell id="MtYATLDpqeaaa2HfLT5w-217" value="" style="strokeWidth=1;shadow=0;dashed=0;align=center;html=1;shape=mxgraph.mockup.containers.anchor;rSize=0;fontSize=17;fontColor=#666666;align=left;" parent="MtYATLDpqeaaa2HfLT5w-215" vertex="1">
          <mxGeometry x="130" y="60" width="250" height="26" as="geometry" />
        </mxCell>
        <mxCell id="MtYATLDpqeaaa2HfLT5w-226" value="" style="group" parent="MtYATLDpqeaaa2HfLT5w-215" vertex="1" connectable="0">
          <mxGeometry x="500" y="160" width="360" height="470" as="geometry" />
        </mxCell>
        <mxCell id="MtYATLDpqeaaa2HfLT5w-117" value="" style="rounded=1;whiteSpace=wrap;html=1;fontFamily=Helvetica;arcSize=4;" parent="MtYATLDpqeaaa2HfLT5w-226" vertex="1">
          <mxGeometry width="360" height="470.00000000000006" as="geometry" />
        </mxCell>
        <mxCell id="MtYATLDpqeaaa2HfLT5w-118" value="&lt;font style=&quot;font-size: 18px;&quot;&gt;パスワードリセット&lt;/font&gt;" style="text;html=1;strokeColor=none;fillColor=none;align=center;verticalAlign=middle;whiteSpace=wrap;rounded=0;" parent="MtYATLDpqeaaa2HfLT5w-226" vertex="1">
          <mxGeometry x="32.618571428571435" y="28.834355828220865" width="293.14285714285717" height="51.901840490797554" as="geometry" />
        </mxCell>
        <mxCell id="MtYATLDpqeaaa2HfLT5w-125" value="&lt;font style=&quot;font-size: 13px;&quot;&gt;古いパスワード&lt;/font&gt;" style="text;html=1;strokeColor=none;fillColor=none;align=left;verticalAlign=middle;whiteSpace=wrap;rounded=0;fontFamily=Helvetica;fontSize=13;" parent="MtYATLDpqeaaa2HfLT5w-226" vertex="1">
          <mxGeometry x="45.797142857142866" y="80.7361963190184" width="155.25" height="34.60122699386504" as="geometry" />
        </mxCell>
        <mxCell id="MtYATLDpqeaaa2HfLT5w-126" value="" style="rounded=1;whiteSpace=wrap;html=1;fontFamily=Helvetica;fontSize=13;" parent="MtYATLDpqeaaa2HfLT5w-226" vertex="1">
          <mxGeometry x="47.40428571428572" y="112.45398773006137" width="257.14285714285717" height="34.60122699386504" as="geometry" />
        </mxCell>
        <mxCell id="MtYATLDpqeaaa2HfLT5w-127" value="&lt;font color=&quot;#999999&quot; style=&quot;font-size: 11px;&quot;&gt;古いパスワードを入力してください&lt;/font&gt;" style="text;html=1;strokeColor=none;fillColor=none;align=left;verticalAlign=middle;whiteSpace=wrap;rounded=0;fontFamily=Helvetica;fontSize=11;" parent="MtYATLDpqeaaa2HfLT5w-226" vertex="1">
          <mxGeometry x="53.19000000000001" y="115.33742331288346" width="250.7142857142857" height="28.834355828220865" as="geometry" />
        </mxCell>
        <mxCell id="MtYATLDpqeaaa2HfLT5w-128" value="&lt;font style=&quot;font-size: 13px;&quot;&gt;バリデーションエラー&lt;/font&gt;" style="rounded=1;whiteSpace=wrap;html=1;fillColor=#f8cecc;strokeColor=#b85450;fontSize=13;" parent="MtYATLDpqeaaa2HfLT5w-226" vertex="1">
          <mxGeometry x="47.40428571428572" y="152.82208588957056" width="257.14285714285717" height="25.950920245398777" as="geometry" />
        </mxCell>
        <mxCell id="MtYATLDpqeaaa2HfLT5w-137" value="更新" style="rounded=1;whiteSpace=wrap;html=1;fillColor=#f5f5f5;fontColor=#333333;strokeColor=#666666;fontFamily=Helvetica;fontSize=13;" parent="MtYATLDpqeaaa2HfLT5w-226" vertex="1">
          <mxGeometry x="92.40428571428572" y="400.79754601226995" width="167.14285714285717" height="40.3680981595092" as="geometry" />
        </mxCell>
        <mxCell id="MtYATLDpqeaaa2HfLT5w-163" value="&lt;font style=&quot;font-size: 13px;&quot;&gt;新しいパスワード&lt;/font&gt;" style="text;html=1;strokeColor=none;fillColor=none;align=left;verticalAlign=middle;whiteSpace=wrap;rounded=0;fontFamily=Helvetica;fontSize=13;" parent="MtYATLDpqeaaa2HfLT5w-226" vertex="1">
          <mxGeometry x="47.40428571428572" y="178.77300613496934" width="155.25" height="34.60122699386504" as="geometry" />
        </mxCell>
        <mxCell id="MtYATLDpqeaaa2HfLT5w-164" value="" style="rounded=1;whiteSpace=wrap;html=1;fontFamily=Helvetica;fontSize=13;" parent="MtYATLDpqeaaa2HfLT5w-226" vertex="1">
          <mxGeometry x="49.011428571428574" y="210.4907975460123" width="257.14285714285717" height="34.60122699386504" as="geometry" />
        </mxCell>
        <mxCell id="MtYATLDpqeaaa2HfLT5w-165" value="&lt;font color=&quot;#999999&quot; style=&quot;font-size: 11px;&quot;&gt;新しいパスワードを入力してください&lt;/font&gt;" style="text;html=1;strokeColor=none;fillColor=none;align=left;verticalAlign=middle;whiteSpace=wrap;rounded=0;fontFamily=Helvetica;fontSize=11;" parent="MtYATLDpqeaaa2HfLT5w-226" vertex="1">
          <mxGeometry x="57.047142857142866" y="213.37423312883436" width="250.7142857142857" height="28.834355828220865" as="geometry" />
        </mxCell>
        <mxCell id="MtYATLDpqeaaa2HfLT5w-166" value="&lt;font style=&quot;font-size: 13px;&quot;&gt;バリデーションエラー&lt;/font&gt;" style="rounded=1;whiteSpace=wrap;html=1;fillColor=#f8cecc;strokeColor=#b85450;fontSize=13;" parent="MtYATLDpqeaaa2HfLT5w-226" vertex="1">
          <mxGeometry x="49.011428571428574" y="250.8588957055215" width="257.14285714285717" height="25.950920245398777" as="geometry" />
        </mxCell>
        <mxCell id="MtYATLDpqeaaa2HfLT5w-167" value="&lt;font style=&quot;font-size: 13px;&quot;&gt;新しいパスワードの確認&lt;/font&gt;" style="text;html=1;strokeColor=none;fillColor=none;align=left;verticalAlign=middle;whiteSpace=wrap;rounded=0;fontFamily=Helvetica;fontSize=13;" parent="MtYATLDpqeaaa2HfLT5w-226" vertex="1">
          <mxGeometry x="49.011428571428574" y="276.8098159509203" width="190.60714285714286" height="34.60122699386504" as="geometry" />
        </mxCell>
        <mxCell id="MtYATLDpqeaaa2HfLT5w-168" value="" style="rounded=1;whiteSpace=wrap;html=1;fontFamily=Helvetica;fontSize=13;" parent="MtYATLDpqeaaa2HfLT5w-226" vertex="1">
          <mxGeometry x="50.618571428571435" y="308.52760736196325" width="257.14285714285717" height="34.60122699386504" as="geometry" />
        </mxCell>
        <mxCell id="MtYATLDpqeaaa2HfLT5w-169" value="&lt;font color=&quot;#999999&quot; style=&quot;font-size: 11px;&quot;&gt;再度入力してください&lt;/font&gt;" style="text;html=1;strokeColor=none;fillColor=none;align=left;verticalAlign=middle;whiteSpace=wrap;rounded=0;fontFamily=Helvetica;fontSize=11;" parent="MtYATLDpqeaaa2HfLT5w-226" vertex="1">
          <mxGeometry x="57.047142857142866" y="311.4110429447853" width="250.7142857142857" height="31.71779141104295" as="geometry" />
        </mxCell>
        <mxCell id="MtYATLDpqeaaa2HfLT5w-170" value="&lt;font style=&quot;font-size: 13px;&quot;&gt;バリデーションエラー&lt;/font&gt;" style="rounded=1;whiteSpace=wrap;html=1;fillColor=#f8cecc;strokeColor=#b85450;fontSize=13;" parent="MtYATLDpqeaaa2HfLT5w-226" vertex="1">
          <mxGeometry x="50.618571428571435" y="348.8957055214724" width="257.14285714285717" height="25.950920245398777" as="geometry" />
        </mxCell>
        <mxCell id="cHDV28SgRl61PER8CA2b-87" value="" style="strokeWidth=1;shadow=0;dashed=0;align=center;html=1;shape=mxgraph.mockup.containers.browserWindow;rSize=0;mainText=,;recursiveResize=0;rounded=0;labelBackgroundColor=none;fontFamily=Helvetica;fontSize=12;fillColor=#f5f5f5;fontColor=#333333;strokeColor=#666666;" parent="1" vertex="1">
          <mxGeometry x="130" y="1720" width="1280" height="720" as="geometry" />
        </mxCell>
        <mxCell id="cHDV28SgRl61PER8CA2b-88" value="" style="strokeWidth=1;shadow=0;dashed=0;align=center;html=1;shape=mxgraph.mockup.containers.anchor;fontSize=17;fontColor=#666666;align=left;" parent="cHDV28SgRl61PER8CA2b-87" vertex="1">
          <mxGeometry x="60" y="12" width="110" height="26" as="geometry" />
        </mxCell>
        <mxCell id="cHDV28SgRl61PER8CA2b-89" value="" style="strokeWidth=1;shadow=0;dashed=0;align=center;html=1;shape=mxgraph.mockup.containers.anchor;rSize=0;fontSize=17;fontColor=#666666;align=left;" parent="cHDV28SgRl61PER8CA2b-87" vertex="1">
          <mxGeometry x="130" y="60" width="250" height="26" as="geometry" />
        </mxCell>
        <mxCell id="cHDV28SgRl61PER8CA2b-90" value="" style="group;fontSize=13;" parent="cHDV28SgRl61PER8CA2b-87" vertex="1" connectable="0">
          <mxGeometry x="459" y="130" width="390" height="564.29" as="geometry" />
        </mxCell>
        <mxCell id="cHDV28SgRl61PER8CA2b-91" value="" style="rounded=1;whiteSpace=wrap;html=1;fontFamily=Helvetica;fontSize=13;arcSize=4;" parent="cHDV28SgRl61PER8CA2b-90" vertex="1">
          <mxGeometry width="360" height="411.42857142857144" as="geometry" />
        </mxCell>
        <mxCell id="cHDV28SgRl61PER8CA2b-92" value="&lt;font style=&quot;font-size: 24px;&quot;&gt;ログイン&lt;/font&gt;" style="text;html=1;strokeColor=none;fillColor=none;align=center;verticalAlign=middle;whiteSpace=wrap;rounded=0;fontFamily=Helvetica;fontSize=13;" parent="cHDV28SgRl61PER8CA2b-90" vertex="1">
          <mxGeometry x="68.30999999999999" y="22.857142857142858" width="224.99999999999997" height="51.42857142857143" as="geometry" />
        </mxCell>
        <mxCell id="cHDV28SgRl61PER8CA2b-93" value="&lt;font style=&quot;font-size: 11px;&quot;&gt;メール&lt;/font&gt;" style="text;html=1;strokeColor=none;fillColor=none;align=left;verticalAlign=middle;whiteSpace=wrap;rounded=0;fontFamily=Helvetica;fontSize=11;" parent="cHDV28SgRl61PER8CA2b-90" vertex="1">
          <mxGeometry x="50.63142857142856" y="142.85714285714286" width="77.14285714285714" height="34.285714285714285" as="geometry" />
        </mxCell>
        <mxCell id="cHDV28SgRl61PER8CA2b-94" value="&lt;font style=&quot;font-size: 11px;&quot;&gt;パスワード&lt;/font&gt;" style="text;html=1;strokeColor=none;fillColor=none;align=left;verticalAlign=middle;whiteSpace=wrap;rounded=0;fontFamily=Helvetica;fontSize=11;" parent="cHDV28SgRl61PER8CA2b-90" vertex="1">
          <mxGeometry x="52.23857142857142" y="208.57142857142858" width="77.14285714285714" height="34.285714285714285" as="geometry" />
        </mxCell>
        <mxCell id="cHDV28SgRl61PER8CA2b-95" value="&lt;span style=&quot;font-size: 12px;&quot;&gt;&lt;u style=&quot;font-size: 12px;&quot;&gt;&lt;font color=&quot;#0000ff&quot; style=&quot;font-size: 12px;&quot;&gt;パスワードを忘れた方&lt;/font&gt;&lt;/u&gt;&lt;/span&gt;" style="text;html=1;strokeColor=none;fillColor=none;align=right;verticalAlign=middle;whiteSpace=wrap;rounded=0;fontFamily=Helvetica;fontSize=12;" parent="cHDV28SgRl61PER8CA2b-90" vertex="1">
          <mxGeometry x="174.38142857142856" y="291.42857142857144" width="135" height="34.285714285714285" as="geometry" />
        </mxCell>
        <mxCell id="cHDV28SgRl61PER8CA2b-96" value="&lt;span style=&quot;font-size: 13px;&quot;&gt;または&lt;/span&gt;" style="text;html=1;strokeColor=none;fillColor=none;align=center;verticalAlign=middle;whiteSpace=wrap;rounded=0;fontFamily=Helvetica;fontSize=13;" parent="cHDV28SgRl61PER8CA2b-90" vertex="1">
          <mxGeometry x="75.53571428571428" y="422.85714285714283" width="199.28571428571428" height="34.285714285714285" as="geometry" />
        </mxCell>
        <mxCell id="cHDV28SgRl61PER8CA2b-97" value="&lt;font color=&quot;#000033&quot; style=&quot;font-size: 13px;&quot;&gt;Googleでログイン&lt;/font&gt;" style="rounded=1;whiteSpace=wrap;html=1;fillColor=#f8cecc;strokeColor=#b85450;fontFamily=Helvetica;fontSize=13;" parent="cHDV28SgRl61PER8CA2b-90" vertex="1">
          <mxGeometry x="80.35714285714286" y="468.5714285714286" width="189.6428571428571" height="34.285714285714285" as="geometry" />
        </mxCell>
        <mxCell id="cHDV28SgRl61PER8CA2b-98" value="&lt;span style=&quot;font-size: 13px;&quot;&gt;&lt;font color=&quot;#0000ff&quot; style=&quot;font-size: 13px;&quot;&gt;&lt;u style=&quot;font-size: 13px;&quot;&gt;サインアップ&lt;/u&gt;&lt;/font&gt;&lt;/span&gt;" style="text;html=1;strokeColor=none;fillColor=none;align=center;verticalAlign=middle;whiteSpace=wrap;rounded=0;fontFamily=Helvetica;fontSize=13;" parent="cHDV28SgRl61PER8CA2b-90" vertex="1">
          <mxGeometry x="203.3145231499802" y="510.0042857142858" width="106.07142857142857" height="34.285714285714285" as="geometry" />
        </mxCell>
        <mxCell id="cHDV28SgRl61PER8CA2b-99" value="" style="rounded=1;whiteSpace=wrap;html=1;fontFamily=Helvetica;fontSize=11;" parent="cHDV28SgRl61PER8CA2b-90" vertex="1">
          <mxGeometry x="52.23857142857142" y="174.28571428571428" width="257.1428571428571" height="34.285714285714285" as="geometry" />
        </mxCell>
        <mxCell id="cHDV28SgRl61PER8CA2b-100" value="&lt;font color=&quot;#999999&quot; style=&quot;font-size: 11px;&quot;&gt;abc@gmail.com&lt;/font&gt;" style="text;html=1;strokeColor=none;fillColor=none;align=left;verticalAlign=middle;whiteSpace=wrap;rounded=0;fontFamily=Helvetica;fontSize=11;" parent="cHDV28SgRl61PER8CA2b-90" vertex="1">
          <mxGeometry x="61.881428571428565" y="177.14285714285714" width="244.28571428571425" height="28.571428571428573" as="geometry" />
        </mxCell>
        <mxCell id="cHDV28SgRl61PER8CA2b-101" value="" style="rounded=1;whiteSpace=wrap;html=1;fontFamily=Helvetica;fontSize=11;" parent="cHDV28SgRl61PER8CA2b-90" vertex="1">
          <mxGeometry x="52.23857142857142" y="240" width="257.1428571428571" height="34.285714285714285" as="geometry" />
        </mxCell>
        <mxCell id="cHDV28SgRl61PER8CA2b-102" value="&lt;font color=&quot;#999999&quot; style=&quot;font-size: 11px;&quot;&gt;＊＊＊＊＊＊＊＊＊&lt;/font&gt;" style="text;html=1;strokeColor=none;fillColor=none;align=left;verticalAlign=middle;whiteSpace=wrap;rounded=0;fontFamily=Helvetica;fontSize=11;" parent="cHDV28SgRl61PER8CA2b-90" vertex="1">
          <mxGeometry x="61.881428571428565" y="242.85714285714286" width="244.28571428571425" height="28.571428571428573" as="geometry" />
        </mxCell>
        <mxCell id="cHDV28SgRl61PER8CA2b-103" value="ログイン" style="rounded=1;whiteSpace=wrap;html=1;fillColor=#f5f5f5;strokeColor=#666666;fontFamily=Helvetica;fontColor=#333333;fontSize=13;" parent="cHDV28SgRl61PER8CA2b-90" vertex="1">
          <mxGeometry x="92.41714285714285" y="342.8571428571429" width="167.1428571428571" height="40" as="geometry" />
        </mxCell>
        <mxCell id="cHDV28SgRl61PER8CA2b-104" value="" style="line;strokeWidth=1;html=1;fontFamily=Helvetica;fontSize=13;" parent="cHDV28SgRl61PER8CA2b-90" vertex="1">
          <mxGeometry x="27.32142857142857" y="434.28571428571433" width="115.71428571428571" height="11.428571428571429" as="geometry" />
        </mxCell>
        <mxCell id="cHDV28SgRl61PER8CA2b-105" value="" style="line;strokeWidth=1;html=1;fontFamily=Helvetica;fontSize=13;" parent="cHDV28SgRl61PER8CA2b-90" vertex="1">
          <mxGeometry x="204.10714285714283" y="434.28571428571433" width="115.71428571428571" height="11.428571428571429" as="geometry" />
        </mxCell>
        <mxCell id="cHDV28SgRl61PER8CA2b-106" value="" style="rounded=1;whiteSpace=wrap;html=1;fillColor=#f8cecc;strokeColor=#b85450;fontSize=13;" parent="cHDV28SgRl61PER8CA2b-90" vertex="1">
          <mxGeometry x="52.23857142857142" y="91.42857142857143" width="257.1428571428571" height="51.42857142857143" as="geometry" />
        </mxCell>
        <mxCell id="cHDV28SgRl61PER8CA2b-107" value="&lt;font style=&quot;font-size: 13px;&quot;&gt;ユーザー名またはパスワードが違います。&lt;/font&gt;" style="text;html=1;strokeColor=none;fillColor=none;align=left;verticalAlign=middle;whiteSpace=wrap;rounded=0;fontSize=13;" parent="cHDV28SgRl61PER8CA2b-90" vertex="1">
          <mxGeometry x="61.881428571428565" y="100.00000000000001" width="218.57142857142856" height="34.285714285714285" as="geometry" />
        </mxCell>
        <mxCell id="cHDV28SgRl61PER8CA2b-108" value="" style="shape=mxgraph.sysml.x;fontSize=13;" parent="cHDV28SgRl61PER8CA2b-90" vertex="1">
          <mxGeometry x="280.4528571428571" y="111.42857142857143" width="12.857142857142856" height="11.428571428571429" as="geometry" />
        </mxCell>
        <mxCell id="cHDV28SgRl61PER8CA2b-177" value="EL-4" style="shape=callout;whiteSpace=wrap;html=1;perimeter=calloutPerimeter;fillColor=#fad7ac;strokeColor=#b46504;position2=0.1;base=10;size=20;position=0.3;" parent="cHDV28SgRl61PER8CA2b-90" vertex="1">
          <mxGeometry x="306.17" y="211.43" width="49.39" height="38.57" as="geometry" />
        </mxCell>
        <mxCell id="cHDV28SgRl61PER8CA2b-178" value="EL-3" style="shape=callout;whiteSpace=wrap;html=1;perimeter=calloutPerimeter;fillColor=#fad7ac;strokeColor=#b46504;position2=0.1;base=10;size=20;position=0.3;" parent="cHDV28SgRl61PER8CA2b-90" vertex="1">
          <mxGeometry x="306.1700000000001" y="142.8599999999999" width="49.39" height="38.57" as="geometry" />
        </mxCell>
        <mxCell id="cHDV28SgRl61PER8CA2b-179" value="EL-2" style="shape=callout;whiteSpace=wrap;html=1;perimeter=calloutPerimeter;fillColor=#fad7ac;strokeColor=#b46504;position2=0.1;base=10;size=20;position=0.3;" parent="cHDV28SgRl61PER8CA2b-90" vertex="1">
          <mxGeometry x="306.1700000000001" y="72.85999999999984" width="49.39" height="38.57" as="geometry" />
        </mxCell>
        <mxCell id="cHDV28SgRl61PER8CA2b-180" value="EL-5" style="shape=callout;whiteSpace=wrap;html=1;perimeter=calloutPerimeter;fillColor=#fad7ac;strokeColor=#b46504;position2=0.1;base=10;size=20;position=0.3;" parent="cHDV28SgRl61PER8CA2b-90" vertex="1">
          <mxGeometry x="306.1700000000001" y="271.42999999999984" width="49.39" height="38.57" as="geometry" />
        </mxCell>
        <mxCell id="cHDV28SgRl61PER8CA2b-181" value="EL-6" style="shape=callout;whiteSpace=wrap;html=1;perimeter=calloutPerimeter;fillColor=#fad7ac;strokeColor=#b46504;position2=0.1;base=10;size=20;position=0.3;" parent="cHDV28SgRl61PER8CA2b-90" vertex="1">
          <mxGeometry x="256.7800000000001" y="325.71000000000004" width="49.39" height="38.57" as="geometry" />
        </mxCell>
        <mxCell id="cHDV28SgRl61PER8CA2b-109" value="&lt;span style=&quot;font-size: 13px;&quot;&gt;アカウントを持ってない ?&lt;/span&gt;" style="text;html=1;strokeColor=none;fillColor=none;align=center;verticalAlign=middle;whiteSpace=wrap;rounded=0;fontFamily=Helvetica;fontSize=13;" parent="cHDV28SgRl61PER8CA2b-87" vertex="1">
          <mxGeometry x="510.57142857142856" y="640.0042857142857" width="157.9375" height="34.285714285714285" as="geometry" />
        </mxCell>
        <mxCell id="cHDV28SgRl61PER8CA2b-165" value="EL-1" style="shape=callout;whiteSpace=wrap;html=1;perimeter=calloutPerimeter;fillColor=#fad7ac;strokeColor=#b46504;position2=0.14;" parent="cHDV28SgRl61PER8CA2b-87" vertex="1">
          <mxGeometry x="690" y="110" width="70" height="70" as="geometry" />
        </mxCell>
        <mxCell id="cHDV28SgRl61PER8CA2b-182" value="EL-6" style="shape=callout;whiteSpace=wrap;html=1;perimeter=calloutPerimeter;fillColor=#fad7ac;strokeColor=#b46504;position2=0.1;base=10;size=20;position=0.3;" parent="cHDV28SgRl61PER8CA2b-87" vertex="1">
          <mxGeometry x="780.0000000000001" y="530" width="49.39" height="38.57" as="geometry" />
        </mxCell>
        <mxCell id="cHDV28SgRl61PER8CA2b-183" value="EL-8" style="shape=callout;whiteSpace=wrap;html=1;perimeter=calloutPerimeter;fillColor=#fad7ac;strokeColor=#b46504;position2=0.1;base=10;size=20;position=0.3;" parent="cHDV28SgRl61PER8CA2b-87" vertex="1">
          <mxGeometry x="730.6100000000001" y="580" width="49.39" height="38.57" as="geometry" />
        </mxCell>
        <mxCell id="cHDV28SgRl61PER8CA2b-184" value="EL-8" style="shape=callout;whiteSpace=wrap;html=1;perimeter=calloutPerimeter;fillColor=#fad7ac;strokeColor=#b46504;position2=0.99;base=14;size=20;position=0.3;" parent="cHDV28SgRl61PER8CA2b-87" vertex="1">
          <mxGeometry x="461.18000000000006" y="618.5700000000002" width="49.39" height="38.57" as="geometry" />
        </mxCell>
        <mxCell id="cHDV28SgRl61PER8CA2b-185" value="EL-10" style="shape=callout;whiteSpace=wrap;html=1;perimeter=calloutPerimeter;fillColor=#fad7ac;strokeColor=#b46504;position2=0;base=14;size=20;position=0.3;" parent="cHDV28SgRl61PER8CA2b-87" vertex="1">
          <mxGeometry x="760" y="618.5700000000002" width="49.39" height="38.57" as="geometry" />
        </mxCell>
        <mxCell id="cHDV28SgRl61PER8CA2b-110" value="" style="strokeWidth=1;shadow=0;dashed=0;align=center;html=1;shape=mxgraph.mockup.containers.browserWindow;rSize=0;strokeColor=#666666;mainText=,;recursiveResize=0;rounded=0;labelBackgroundColor=none;fontFamily=Verdana;fontSize=12;fillColor=#f5f5f5;fontColor=#333333;" parent="1" vertex="1">
          <mxGeometry x="1549" y="1720" width="1280" height="720" as="geometry" />
        </mxCell>
        <mxCell id="cHDV28SgRl61PER8CA2b-111" value="" style="strokeWidth=1;shadow=0;dashed=0;align=center;html=1;shape=mxgraph.mockup.containers.anchor;fontSize=17;fontColor=#666666;align=left;" parent="cHDV28SgRl61PER8CA2b-110" vertex="1">
          <mxGeometry x="60" y="12" width="110" height="26" as="geometry" />
        </mxCell>
        <mxCell id="cHDV28SgRl61PER8CA2b-112" value="" style="strokeWidth=1;shadow=0;dashed=0;align=center;html=1;shape=mxgraph.mockup.containers.anchor;rSize=0;fontSize=17;fontColor=#666666;align=left;" parent="cHDV28SgRl61PER8CA2b-110" vertex="1">
          <mxGeometry x="130" y="60" width="250" height="26" as="geometry" />
        </mxCell>
        <mxCell id="cHDV28SgRl61PER8CA2b-113" value="" style="group" parent="cHDV28SgRl61PER8CA2b-110" vertex="1" connectable="0">
          <mxGeometry x="500" y="130" width="360" height="560" as="geometry" />
        </mxCell>
        <mxCell id="cHDV28SgRl61PER8CA2b-114" value="" style="rounded=1;whiteSpace=wrap;html=1;fontFamily=Helvetica;arcSize=4;" parent="cHDV28SgRl61PER8CA2b-113" vertex="1">
          <mxGeometry width="360" height="407.27272727272725" as="geometry" />
        </mxCell>
        <mxCell id="cHDV28SgRl61PER8CA2b-115" value="&lt;span style=&quot;font-size: 24px;&quot;&gt;新登録&lt;/span&gt;" style="text;html=1;strokeColor=none;fillColor=none;align=center;verticalAlign=middle;whiteSpace=wrap;rounded=0;" parent="cHDV28SgRl61PER8CA2b-113" vertex="1">
          <mxGeometry x="93.85714285714286" y="10.18181818181818" width="160.71428571428572" height="66.18181818181817" as="geometry" />
        </mxCell>
        <mxCell id="cHDV28SgRl61PER8CA2b-116" value="&lt;font style=&quot;font-size: 13px;&quot;&gt;Googleでサインイン&lt;/font&gt;" style="rounded=1;whiteSpace=wrap;html=1;fillColor=#f8cecc;strokeColor=#b85450;fontSize=13;" parent="cHDV28SgRl61PER8CA2b-113" vertex="1">
          <mxGeometry x="74.25" y="468.3636363636363" width="201.21428571428572" height="30.545454545454543" as="geometry" />
        </mxCell>
        <mxCell id="cHDV28SgRl61PER8CA2b-117" value="&lt;span style=&quot;font-size: 13px;&quot;&gt;または&lt;/span&gt;" style="text;html=1;strokeColor=none;fillColor=none;align=center;verticalAlign=middle;whiteSpace=wrap;rounded=0;fontFamily=Helvetica;fontSize=13;" parent="cHDV28SgRl61PER8CA2b-113" vertex="1">
          <mxGeometry x="76.17857142857143" y="427.63636363636357" width="199.2857142857143" height="30.545454545454543" as="geometry" />
        </mxCell>
        <mxCell id="cHDV28SgRl61PER8CA2b-118" value="" style="line;strokeWidth=1;html=1;fontFamily=Helvetica;" parent="cHDV28SgRl61PER8CA2b-113" vertex="1">
          <mxGeometry x="27.964285714285715" y="437.81818181818176" width="115.71428571428572" height="10.18181818181818" as="geometry" />
        </mxCell>
        <mxCell id="cHDV28SgRl61PER8CA2b-119" value="" style="line;strokeWidth=1;html=1;fontFamily=Helvetica;" parent="cHDV28SgRl61PER8CA2b-113" vertex="1">
          <mxGeometry x="204.75000000000003" y="437.81818181818176" width="115.71428571428572" height="10.18181818181818" as="geometry" />
        </mxCell>
        <mxCell id="cHDV28SgRl61PER8CA2b-120" value="&lt;font style=&quot;font-size: 11px;&quot;&gt;ユーザー名&lt;/font&gt;" style="text;html=1;strokeColor=none;fillColor=none;align=left;verticalAlign=middle;whiteSpace=wrap;rounded=0;fontFamily=Helvetica;fontSize=11;" parent="cHDV28SgRl61PER8CA2b-113" vertex="1">
          <mxGeometry x="50.464285714285715" y="63.63636363636363" width="77.14285714285715" height="30.545454545454543" as="geometry" />
        </mxCell>
        <mxCell id="cHDV28SgRl61PER8CA2b-121" value="" style="rounded=1;whiteSpace=wrap;html=1;fontFamily=Helvetica;" parent="cHDV28SgRl61PER8CA2b-113" vertex="1">
          <mxGeometry x="52.07142857142858" y="91.63636363636363" width="257.14285714285717" height="30.545454545454543" as="geometry" />
        </mxCell>
        <mxCell id="cHDV28SgRl61PER8CA2b-122" value="&lt;font color=&quot;#999999&quot;&gt;&lt;span style=&quot;font-size: 11px;&quot;&gt;sotarokun&lt;/span&gt;&lt;/font&gt;" style="text;html=1;strokeColor=none;fillColor=none;align=left;verticalAlign=middle;whiteSpace=wrap;rounded=0;fontFamily=Helvetica;" parent="cHDV28SgRl61PER8CA2b-113" vertex="1">
          <mxGeometry x="61.71428571428572" y="94.18181818181817" width="244.2857142857143" height="25.454545454545453" as="geometry" />
        </mxCell>
        <mxCell id="cHDV28SgRl61PER8CA2b-123" value="&lt;font style=&quot;font-size: 13px;&quot;&gt;バリデーションエラー&lt;/font&gt;" style="rounded=1;whiteSpace=wrap;html=1;fillColor=#f8cecc;strokeColor=#b85450;" parent="cHDV28SgRl61PER8CA2b-113" vertex="1">
          <mxGeometry x="52.07142857142858" y="127.27272727272727" width="257.14285714285717" height="22.909090909090907" as="geometry" />
        </mxCell>
        <mxCell id="cHDV28SgRl61PER8CA2b-124" value="&lt;font style=&quot;font-size: 11px;&quot;&gt;メール&lt;/font&gt;" style="text;html=1;strokeColor=none;fillColor=none;align=left;verticalAlign=middle;whiteSpace=wrap;rounded=0;fontFamily=Helvetica;fontSize=11;" parent="cHDV28SgRl61PER8CA2b-113" vertex="1">
          <mxGeometry x="50.63142857142857" y="150.18181818181816" width="77.14285714285715" height="30.545454545454543" as="geometry" />
        </mxCell>
        <mxCell id="cHDV28SgRl61PER8CA2b-125" value="" style="rounded=1;whiteSpace=wrap;html=1;fontFamily=Helvetica;" parent="cHDV28SgRl61PER8CA2b-113" vertex="1">
          <mxGeometry x="52.238571428571426" y="178.18181818181816" width="257.14285714285717" height="30.545454545454543" as="geometry" />
        </mxCell>
        <mxCell id="cHDV28SgRl61PER8CA2b-126" value="&lt;font color=&quot;#999999&quot; style=&quot;font-size: 11px;&quot;&gt;abc@gmail.com&lt;/font&gt;" style="text;html=1;strokeColor=none;fillColor=none;align=left;verticalAlign=middle;whiteSpace=wrap;rounded=0;fontFamily=Helvetica;" parent="cHDV28SgRl61PER8CA2b-113" vertex="1">
          <mxGeometry x="61.88142857142857" y="180.72727272727272" width="244.2857142857143" height="25.454545454545453" as="geometry" />
        </mxCell>
        <mxCell id="cHDV28SgRl61PER8CA2b-127" value="&lt;font style=&quot;font-size: 13px;&quot;&gt;バリデーションエラー&lt;/font&gt;" style="rounded=1;whiteSpace=wrap;html=1;fillColor=#f8cecc;strokeColor=#b85450;" parent="cHDV28SgRl61PER8CA2b-113" vertex="1">
          <mxGeometry x="52.238571428571426" y="213.81818181818178" width="257.14285714285717" height="22.909090909090907" as="geometry" />
        </mxCell>
        <mxCell id="cHDV28SgRl61PER8CA2b-128" value="&lt;font style=&quot;font-size: 11px;&quot;&gt;パスワード&lt;/font&gt;" style="text;html=1;strokeColor=none;fillColor=none;align=left;verticalAlign=middle;whiteSpace=wrap;rounded=0;fontFamily=Helvetica;fontSize=11;" parent="cHDV28SgRl61PER8CA2b-113" vertex="1">
          <mxGeometry x="51.26142857142858" y="236.7272727272727" width="77.14285714285715" height="30.545454545454543" as="geometry" />
        </mxCell>
        <mxCell id="cHDV28SgRl61PER8CA2b-129" value="" style="rounded=1;whiteSpace=wrap;html=1;fontFamily=Helvetica;" parent="cHDV28SgRl61PER8CA2b-113" vertex="1">
          <mxGeometry x="52.868571428571435" y="264.7272727272727" width="257.14285714285717" height="30.545454545454543" as="geometry" />
        </mxCell>
        <mxCell id="cHDV28SgRl61PER8CA2b-130" value="&lt;font style=&quot;font-size: 11px;&quot;&gt;＊＊＊＊＊＊＊＊＊&lt;/font&gt;" style="text;html=1;strokeColor=none;fillColor=none;align=left;verticalAlign=middle;whiteSpace=wrap;rounded=0;fontFamily=Helvetica;fontColor=#999999;" parent="cHDV28SgRl61PER8CA2b-113" vertex="1">
          <mxGeometry x="62.51142857142858" y="267.27272727272725" width="244.2857142857143" height="25.454545454545453" as="geometry" />
        </mxCell>
        <mxCell id="cHDV28SgRl61PER8CA2b-131" value="&lt;font style=&quot;font-size: 13px;&quot;&gt;バリデーションエラー&lt;/font&gt;" style="rounded=1;whiteSpace=wrap;html=1;fillColor=#f8cecc;strokeColor=#b85450;" parent="cHDV28SgRl61PER8CA2b-113" vertex="1">
          <mxGeometry x="52.868571428571435" y="300.3636363636363" width="257.14285714285717" height="22.909090909090907" as="geometry" />
        </mxCell>
        <mxCell id="cHDV28SgRl61PER8CA2b-132" value="登録" style="rounded=1;whiteSpace=wrap;html=1;fillColor=#f5f5f5;fontColor=#333333;strokeColor=#666666;fontFamily=Helvetica;fontSize=13;" parent="cHDV28SgRl61PER8CA2b-113" vertex="1">
          <mxGeometry x="93.85714285714286" y="346.18181818181813" width="167.14285714285717" height="35.63636363636363" as="geometry" />
        </mxCell>
        <mxCell id="ak03xwFnYcwbR5J1WFGZ-4" value="TXT-1" style="rounded=1;whiteSpace=wrap;html=1;fillColor=#ffe6cc;strokeColor=#d79b00;" vertex="1" parent="cHDV28SgRl61PER8CA2b-113">
          <mxGeometry x="93.86000000000013" y="33.26999999999998" width="40" height="20" as="geometry" />
        </mxCell>
        <mxCell id="ak03xwFnYcwbR5J1WFGZ-5" value="INP-1" style="rounded=1;whiteSpace=wrap;html=1;fillColor=#ffe6cc;strokeColor=#d79b00;" vertex="1" parent="cHDV28SgRl61PER8CA2b-113">
          <mxGeometry x="261" y="96.91000000000008" width="40" height="20" as="geometry" />
        </mxCell>
        <mxCell id="ak03xwFnYcwbR5J1WFGZ-6" value="INP-2" style="rounded=1;whiteSpace=wrap;html=1;fillColor=#ffe6cc;strokeColor=#d79b00;" vertex="1" parent="cHDV28SgRl61PER8CA2b-113">
          <mxGeometry x="261" y="183.45000000000005" width="40" height="20" as="geometry" />
        </mxCell>
        <mxCell id="ak03xwFnYcwbR5J1WFGZ-7" value="INP-3" style="rounded=1;whiteSpace=wrap;html=1;fillColor=#ffe6cc;strokeColor=#d79b00;" vertex="1" parent="cHDV28SgRl61PER8CA2b-113">
          <mxGeometry x="261" y="270" width="40" height="20" as="geometry" />
        </mxCell>
        <mxCell id="ak03xwFnYcwbR5J1WFGZ-8" value="BTN-1" style="rounded=1;whiteSpace=wrap;html=1;fillColor=#ffe6cc;strokeColor=#d79b00;" vertex="1" parent="cHDV28SgRl61PER8CA2b-113">
          <mxGeometry x="214.57000000000016" y="354" width="40" height="20" as="geometry" />
        </mxCell>
        <mxCell id="ak03xwFnYcwbR5J1WFGZ-9" value="BTN-2" style="rounded=1;whiteSpace=wrap;html=1;fillColor=#ffe6cc;strokeColor=#d79b00;" vertex="1" parent="cHDV28SgRl61PER8CA2b-113">
          <mxGeometry x="254.57000000000016" y="473.6399999999999" width="40" height="20" as="geometry" />
        </mxCell>
        <mxCell id="ak03xwFnYcwbR5J1WFGZ-11" value="TXT-6" style="rounded=1;whiteSpace=wrap;html=1;fillColor=#ffe6cc;strokeColor=#d79b00;" vertex="1" parent="cHDV28SgRl61PER8CA2b-113">
          <mxGeometry x="121.00000000000004" y="540" width="40" height="20" as="geometry" />
        </mxCell>
        <mxCell id="cHDV28SgRl61PER8CA2b-133" value="&lt;span style=&quot;font-size: 13px;&quot;&gt;アカウントを持っている方&lt;br style=&quot;font-size: 13px;&quot;&gt;&lt;/span&gt;" style="text;html=1;strokeColor=none;fillColor=none;align=center;verticalAlign=middle;whiteSpace=wrap;rounded=0;fontSize=13;" parent="cHDV28SgRl61PER8CA2b-110" vertex="1">
          <mxGeometry x="561.0685714285714" y="640.0045454545455" width="160.71428571428572" height="30.545454545454543" as="geometry" />
        </mxCell>
        <mxCell id="cHDV28SgRl61PER8CA2b-134" value="&lt;font color=&quot;#0000ff&quot; style=&quot;font-size: 13px;&quot;&gt;&lt;span style=&quot;font-size: 13px;&quot;&gt;&lt;u style=&quot;font-size: 13px;&quot;&gt;サインイン&lt;/u&gt;&lt;/span&gt;&lt;/font&gt;" style="text;html=1;strokeColor=none;fillColor=none;align=center;verticalAlign=middle;whiteSpace=wrap;rounded=0;fontSize=13;" parent="cHDV28SgRl61PER8CA2b-110" vertex="1">
          <mxGeometry x="718.5685714285714" y="640.0045454545455" width="80.35714285714286" height="30.545454545454543" as="geometry" />
        </mxCell>
        <mxCell id="ak03xwFnYcwbR5J1WFGZ-10" value="TXT-5" style="rounded=1;whiteSpace=wrap;html=1;fillColor=#ffe6cc;strokeColor=#d79b00;" vertex="1" parent="cHDV28SgRl61PER8CA2b-110">
          <mxGeometry x="481" y="560" width="40" height="20" as="geometry" />
        </mxCell>
        <mxCell id="ak03xwFnYcwbR5J1WFGZ-42" value="BTN-7" style="rounded=1;whiteSpace=wrap;html=1;fillColor=#ffe6cc;strokeColor=#d79b00;" vertex="1" parent="cHDV28SgRl61PER8CA2b-110">
          <mxGeometry x="738.75" y="670" width="40" height="20" as="geometry" />
        </mxCell>
        <mxCell id="ak03xwFnYcwbR5J1WFGZ-1" value="TXT-2-[1,2,3]" style="rounded=1;whiteSpace=wrap;html=1;fillColor=#ffe6cc;strokeColor=#d79b00;" vertex="1" parent="cHDV28SgRl61PER8CA2b-110">
          <mxGeometry x="401" y="340" width="89" height="20" as="geometry" />
        </mxCell>
        <mxCell id="ak03xwFnYcwbR5J1WFGZ-43" value="" style="endArrow=classic;html=1;rounded=0;exitX=0;exitY=0.5;exitDx=0;exitDy=0;entryX=0.75;entryY=0;entryDx=0;entryDy=0;" edge="1" parent="cHDV28SgRl61PER8CA2b-110" source="cHDV28SgRl61PER8CA2b-123" target="ak03xwFnYcwbR5J1WFGZ-1">
          <mxGeometry width="50" height="50" relative="1" as="geometry">
            <mxPoint x="531" y="440" as="sourcePoint" />
            <mxPoint x="581" y="390" as="targetPoint" />
          </mxGeometry>
        </mxCell>
        <mxCell id="ak03xwFnYcwbR5J1WFGZ-44" value="" style="endArrow=classic;html=1;rounded=0;exitX=0;exitY=0.5;exitDx=0;exitDy=0;entryX=1;entryY=0.5;entryDx=0;entryDy=0;" edge="1" parent="cHDV28SgRl61PER8CA2b-110" source="cHDV28SgRl61PER8CA2b-127" target="ak03xwFnYcwbR5J1WFGZ-1">
          <mxGeometry width="50" height="50" relative="1" as="geometry">
            <mxPoint x="562" y="279" as="sourcePoint" />
            <mxPoint x="478" y="350" as="targetPoint" />
          </mxGeometry>
        </mxCell>
        <mxCell id="ak03xwFnYcwbR5J1WFGZ-45" value="" style="endArrow=classic;html=1;rounded=0;exitX=0;exitY=0.5;exitDx=0;exitDy=0;entryX=0.75;entryY=1;entryDx=0;entryDy=0;" edge="1" parent="cHDV28SgRl61PER8CA2b-110" source="cHDV28SgRl61PER8CA2b-131" target="ak03xwFnYcwbR5J1WFGZ-1">
          <mxGeometry width="50" height="50" relative="1" as="geometry">
            <mxPoint x="562" y="365" as="sourcePoint" />
            <mxPoint x="500" y="360" as="targetPoint" />
          </mxGeometry>
        </mxCell>
        <mxCell id="cHDV28SgRl61PER8CA2b-135" value="" style="strokeWidth=1;shadow=0;dashed=0;align=center;html=1;shape=mxgraph.mockup.containers.browserWindow;rSize=0;mainText=,;recursiveResize=0;rounded=0;labelBackgroundColor=none;fontFamily=Verdana;fontSize=13;fillColor=#f5f5f5;fontColor=#333333;strokeColor=#666666;" parent="1" vertex="1">
          <mxGeometry x="139" y="2520" width="1280" height="720" as="geometry" />
        </mxCell>
        <mxCell id="cHDV28SgRl61PER8CA2b-136" value="" style="strokeWidth=1;shadow=0;dashed=0;align=center;html=1;shape=mxgraph.mockup.containers.anchor;fontSize=17;fontColor=#666666;align=left;" parent="cHDV28SgRl61PER8CA2b-135" vertex="1">
          <mxGeometry x="60" y="12" width="110" height="26" as="geometry" />
        </mxCell>
        <mxCell id="cHDV28SgRl61PER8CA2b-137" value="" style="strokeWidth=1;shadow=0;dashed=0;align=center;html=1;shape=mxgraph.mockup.containers.anchor;rSize=0;fontSize=17;fontColor=#666666;align=left;" parent="cHDV28SgRl61PER8CA2b-135" vertex="1">
          <mxGeometry x="130" y="60" width="250" height="26" as="geometry" />
        </mxCell>
        <mxCell id="cHDV28SgRl61PER8CA2b-138" value="" style="group" parent="cHDV28SgRl61PER8CA2b-135" vertex="1" connectable="0">
          <mxGeometry x="410" y="160" width="430" height="450" as="geometry" />
        </mxCell>
        <mxCell id="cHDV28SgRl61PER8CA2b-139" value="" style="rounded=1;whiteSpace=wrap;html=1;fontFamily=Helvetica;fontSize=13;arcSize=4;" parent="cHDV28SgRl61PER8CA2b-138" vertex="1">
          <mxGeometry width="430" height="390" as="geometry" />
        </mxCell>
        <mxCell id="cHDV28SgRl61PER8CA2b-140" value="&lt;span style=&quot;font-size: 24px;&quot;&gt;パスワードリセット&lt;br&gt;&lt;/span&gt;" style="text;html=1;strokeColor=none;fillColor=none;align=left;verticalAlign=middle;whiteSpace=wrap;rounded=0;" parent="cHDV28SgRl61PER8CA2b-138" vertex="1">
          <mxGeometry x="44.10256410256409" y="32.869107908063825" width="266.999306999307" height="75.16526770051483" as="geometry" />
        </mxCell>
        <mxCell id="cHDV28SgRl61PER8CA2b-141" value="&lt;font style=&quot;font-size: 12px;&quot;&gt;メールアドレスを入力してパスワードをリセットするリンクを送信してください。&lt;/font&gt;" style="text;html=1;strokeColor=none;fillColor=none;align=left;verticalAlign=middle;whiteSpace=wrap;rounded=0;fontSize=11;" parent="cHDV28SgRl61PER8CA2b-138" vertex="1">
          <mxGeometry x="44.10256410256409" y="113.81476431632248" width="331.4374514374515" height="34.68786521231009" as="geometry" />
        </mxCell>
        <mxCell id="cHDV28SgRl61PER8CA2b-142" value="&lt;font color=&quot;#999999&quot; style=&quot;font-size: 13px;&quot; face=&quot;Helvetica&quot;&gt;abc@gmail.com&lt;/font&gt;" style="text;html=1;strokeColor=none;fillColor=none;align=left;verticalAlign=middle;whiteSpace=wrap;rounded=0;fontSize=13;" parent="cHDV28SgRl61PER8CA2b-138" vertex="1">
          <mxGeometry x="44.10256410256409" y="177.4176996398231" width="286.07068607068607" height="28.90971834635186" as="geometry" />
        </mxCell>
        <mxCell id="cHDV28SgRl61PER8CA2b-143" value="" style="line;strokeWidth=1;html=1;fontSize=13;" parent="cHDV28SgRl61PER8CA2b-138" vertex="1">
          <mxGeometry x="44.10256410256409" y="206.33034670821965" width="331.4374514374515" height="11.558969614335801" as="geometry" />
        </mxCell>
        <mxCell id="cHDV28SgRl61PER8CA2b-144" value="&lt;font color=&quot;#0000ff&quot; style=&quot;font-size: 13px;&quot;&gt;&lt;span style=&quot;font-size: 13px;&quot;&gt;&lt;u style=&quot;font-size: 13px;&quot;&gt;ログインに戻る&lt;/u&gt;&lt;/span&gt;&lt;/font&gt;" style="text;html=1;strokeColor=none;fillColor=none;align=left;verticalAlign=middle;whiteSpace=wrap;rounded=0;fontSize=13;" parent="cHDV28SgRl61PER8CA2b-138" vertex="1">
          <mxGeometry x="44.10256410256409" y="321.9638683287884" width="154.35897435897436" height="34.68786521231009" as="geometry" />
        </mxCell>
        <mxCell id="cHDV28SgRl61PER8CA2b-145" value="送信" style="rounded=1;whiteSpace=wrap;html=1;fillColor=#f5f5f5;strokeColor=#666666;fontFamily=Helvetica;fontColor=#333333;fontSize=13;" parent="cHDV28SgRl61PER8CA2b-138" vertex="1">
          <mxGeometry x="44.10256410256409" y="252.5881379041682" width="331.4374514374515" height="40.47282820412933" as="geometry" />
        </mxCell>
        <mxCell id="cHDV28SgRl61PER8CA2b-186" value="EL-1" style="shape=callout;whiteSpace=wrap;html=1;perimeter=calloutPerimeter;fillColor=#fad7ac;strokeColor=#b46504;position2=0.1;base=5;size=20;position=0.3;" parent="cHDV28SgRl61PER8CA2b-138" vertex="1">
          <mxGeometry x="261.7100000000001" y="32.870000000000005" width="49.39" height="38.57" as="geometry" />
        </mxCell>
        <mxCell id="cHDV28SgRl61PER8CA2b-187" value="EL-2" style="shape=callout;whiteSpace=wrap;html=1;perimeter=calloutPerimeter;fillColor=#fad7ac;strokeColor=#b46504;position2=0.1;base=5;size=20;position=0.3;" parent="cHDV28SgRl61PER8CA2b-138" vertex="1">
          <mxGeometry x="361.0000000000001" y="80" width="49.39" height="38.57" as="geometry" />
        </mxCell>
        <mxCell id="cHDV28SgRl61PER8CA2b-188" value="EL-3" style="shape=callout;whiteSpace=wrap;html=1;perimeter=calloutPerimeter;fillColor=#fad7ac;strokeColor=#b46504;position2=0.1;base=5;size=20;position=0.3;" parent="cHDV28SgRl61PER8CA2b-138" vertex="1">
          <mxGeometry x="371.0000000000001" y="160" width="49.39" height="38.57" as="geometry" />
        </mxCell>
        <mxCell id="cHDV28SgRl61PER8CA2b-189" value="EL-4" style="shape=callout;whiteSpace=wrap;html=1;perimeter=calloutPerimeter;fillColor=#fad7ac;strokeColor=#b46504;position2=0.1;base=5;size=20;position=0.3;" parent="cHDV28SgRl61PER8CA2b-138" vertex="1">
          <mxGeometry x="371.0000000000001" y="230" width="49.39" height="38.57" as="geometry" />
        </mxCell>
        <mxCell id="cHDV28SgRl61PER8CA2b-190" value="EL-5" style="shape=callout;whiteSpace=wrap;html=1;perimeter=calloutPerimeter;fillColor=#fad7ac;strokeColor=#b46504;position2=0.1;base=5;size=20;position=0.3;" parent="cHDV28SgRl61PER8CA2b-138" vertex="1">
          <mxGeometry x="131.0000000000001" y="300" width="49.39" height="38.57" as="geometry" />
        </mxCell>
        <mxCell id="cHDV28SgRl61PER8CA2b-146" value="" style="strokeWidth=1;shadow=0;dashed=0;align=center;html=1;shape=mxgraph.mockup.containers.browserWindow;rSize=0;strokeColor=#666666;mainText=,;recursiveResize=0;rounded=0;labelBackgroundColor=none;fontFamily=Verdana;fontSize=13;fillColor=#f5f5f5;fontColor=#333333;" parent="1" vertex="1">
          <mxGeometry x="1549" y="2520" width="1280" height="720" as="geometry" />
        </mxCell>
        <mxCell id="cHDV28SgRl61PER8CA2b-147" value="" style="strokeWidth=1;shadow=0;dashed=0;align=center;html=1;shape=mxgraph.mockup.containers.anchor;fontSize=17;fontColor=#666666;align=left;" parent="cHDV28SgRl61PER8CA2b-146" vertex="1">
          <mxGeometry x="60" y="12" width="110" height="26" as="geometry" />
        </mxCell>
        <mxCell id="cHDV28SgRl61PER8CA2b-148" value="" style="strokeWidth=1;shadow=0;dashed=0;align=center;html=1;shape=mxgraph.mockup.containers.anchor;rSize=0;fontSize=17;fontColor=#666666;align=left;" parent="cHDV28SgRl61PER8CA2b-146" vertex="1">
          <mxGeometry x="130" y="60" width="250" height="26" as="geometry" />
        </mxCell>
        <mxCell id="cHDV28SgRl61PER8CA2b-149" value="" style="group" parent="cHDV28SgRl61PER8CA2b-146" vertex="1" connectable="0">
          <mxGeometry x="500" y="160" width="360" height="470" as="geometry" />
        </mxCell>
        <mxCell id="cHDV28SgRl61PER8CA2b-150" value="d" style="rounded=1;whiteSpace=wrap;html=1;fontFamily=Helvetica;arcSize=4;" parent="cHDV28SgRl61PER8CA2b-149" vertex="1">
          <mxGeometry width="360" height="470.00000000000006" as="geometry" />
        </mxCell>
        <mxCell id="cHDV28SgRl61PER8CA2b-151" value="&lt;font style=&quot;font-size: 18px;&quot;&gt;パスワードリセット&lt;/font&gt;" style="text;html=1;strokeColor=none;fillColor=none;align=center;verticalAlign=middle;whiteSpace=wrap;rounded=0;" parent="cHDV28SgRl61PER8CA2b-149" vertex="1">
          <mxGeometry x="32.618571428571435" y="28.834355828220865" width="293.14285714285717" height="51.901840490797554" as="geometry" />
        </mxCell>
        <mxCell id="cHDV28SgRl61PER8CA2b-152" value="&lt;font style=&quot;font-size: 13px;&quot;&gt;古いパスワード&lt;/font&gt;" style="text;html=1;strokeColor=none;fillColor=none;align=left;verticalAlign=middle;whiteSpace=wrap;rounded=0;fontFamily=Helvetica;fontSize=13;" parent="cHDV28SgRl61PER8CA2b-149" vertex="1">
          <mxGeometry x="45.797142857142866" y="80.7361963190184" width="155.25" height="34.60122699386504" as="geometry" />
        </mxCell>
        <mxCell id="cHDV28SgRl61PER8CA2b-153" value="" style="rounded=1;whiteSpace=wrap;html=1;fontFamily=Helvetica;fontSize=13;" parent="cHDV28SgRl61PER8CA2b-149" vertex="1">
          <mxGeometry x="47.40428571428572" y="112.45398773006137" width="257.14285714285717" height="34.60122699386504" as="geometry" />
        </mxCell>
        <mxCell id="cHDV28SgRl61PER8CA2b-154" value="&lt;font color=&quot;#999999&quot; style=&quot;font-size: 11px;&quot;&gt;古いパスワードを入力してください&lt;/font&gt;" style="text;html=1;strokeColor=none;fillColor=none;align=left;verticalAlign=middle;whiteSpace=wrap;rounded=0;fontFamily=Helvetica;fontSize=11;" parent="cHDV28SgRl61PER8CA2b-149" vertex="1">
          <mxGeometry x="53.19000000000001" y="115.33742331288346" width="250.7142857142857" height="28.834355828220865" as="geometry" />
        </mxCell>
        <mxCell id="cHDV28SgRl61PER8CA2b-155" value="&lt;font style=&quot;font-size: 13px;&quot;&gt;バリデーションエラー&lt;/font&gt;" style="rounded=1;whiteSpace=wrap;html=1;fillColor=#f8cecc;strokeColor=#b85450;fontSize=13;" parent="cHDV28SgRl61PER8CA2b-149" vertex="1">
          <mxGeometry x="47.40428571428572" y="152.82208588957056" width="257.14285714285717" height="25.950920245398777" as="geometry" />
        </mxCell>
        <mxCell id="cHDV28SgRl61PER8CA2b-156" value="更新" style="rounded=1;whiteSpace=wrap;html=1;fillColor=#f5f5f5;fontColor=#333333;strokeColor=#666666;fontFamily=Helvetica;fontSize=13;" parent="cHDV28SgRl61PER8CA2b-149" vertex="1">
          <mxGeometry x="92.40428571428572" y="400.79754601226995" width="167.14285714285717" height="40.3680981595092" as="geometry" />
        </mxCell>
        <mxCell id="cHDV28SgRl61PER8CA2b-157" value="&lt;font style=&quot;font-size: 13px;&quot;&gt;新しいパスワード&lt;/font&gt;" style="text;html=1;strokeColor=none;fillColor=none;align=left;verticalAlign=middle;whiteSpace=wrap;rounded=0;fontFamily=Helvetica;fontSize=13;" parent="cHDV28SgRl61PER8CA2b-149" vertex="1">
          <mxGeometry x="47.40428571428572" y="178.77300613496934" width="155.25" height="34.60122699386504" as="geometry" />
        </mxCell>
        <mxCell id="cHDV28SgRl61PER8CA2b-158" value="" style="rounded=1;whiteSpace=wrap;html=1;fontFamily=Helvetica;fontSize=13;" parent="cHDV28SgRl61PER8CA2b-149" vertex="1">
          <mxGeometry x="49.011428571428574" y="210.4907975460123" width="257.14285714285717" height="34.60122699386504" as="geometry" />
        </mxCell>
        <mxCell id="cHDV28SgRl61PER8CA2b-159" value="&lt;font color=&quot;#999999&quot; style=&quot;font-size: 11px;&quot;&gt;新しいパスワードを入力してください&lt;/font&gt;" style="text;html=1;strokeColor=none;fillColor=none;align=left;verticalAlign=middle;whiteSpace=wrap;rounded=0;fontFamily=Helvetica;fontSize=11;" parent="cHDV28SgRl61PER8CA2b-149" vertex="1">
          <mxGeometry x="57.047142857142866" y="213.37423312883436" width="250.7142857142857" height="28.834355828220865" as="geometry" />
        </mxCell>
        <mxCell id="cHDV28SgRl61PER8CA2b-160" value="&lt;font style=&quot;font-size: 13px;&quot;&gt;バリデーションエラー&lt;/font&gt;" style="rounded=1;whiteSpace=wrap;html=1;fillColor=#f8cecc;strokeColor=#b85450;fontSize=13;" parent="cHDV28SgRl61PER8CA2b-149" vertex="1">
          <mxGeometry x="49.011428571428574" y="250.8588957055215" width="257.14285714285717" height="25.950920245398777" as="geometry" />
        </mxCell>
        <mxCell id="cHDV28SgRl61PER8CA2b-161" value="&lt;font style=&quot;font-size: 13px;&quot;&gt;新しいパスワードの確認&lt;/font&gt;" style="text;html=1;strokeColor=none;fillColor=none;align=left;verticalAlign=middle;whiteSpace=wrap;rounded=0;fontFamily=Helvetica;fontSize=13;" parent="cHDV28SgRl61PER8CA2b-149" vertex="1">
          <mxGeometry x="49.011428571428574" y="276.8098159509203" width="190.60714285714286" height="34.60122699386504" as="geometry" />
        </mxCell>
        <mxCell id="cHDV28SgRl61PER8CA2b-162" value="" style="rounded=1;whiteSpace=wrap;html=1;fontFamily=Helvetica;fontSize=13;" parent="cHDV28SgRl61PER8CA2b-149" vertex="1">
          <mxGeometry x="50.618571428571435" y="308.52760736196325" width="257.14285714285717" height="34.60122699386504" as="geometry" />
        </mxCell>
        <mxCell id="cHDV28SgRl61PER8CA2b-163" value="&lt;font color=&quot;#999999&quot; style=&quot;font-size: 11px;&quot;&gt;再度入力してください&lt;/font&gt;" style="text;html=1;strokeColor=none;fillColor=none;align=left;verticalAlign=middle;whiteSpace=wrap;rounded=0;fontFamily=Helvetica;fontSize=11;" parent="cHDV28SgRl61PER8CA2b-149" vertex="1">
          <mxGeometry x="57.047142857142866" y="311.4110429447853" width="250.7142857142857" height="31.71779141104295" as="geometry" />
        </mxCell>
        <mxCell id="cHDV28SgRl61PER8CA2b-164" value="&lt;font style=&quot;font-size: 13px;&quot;&gt;バリデーションエラー&lt;/font&gt;" style="rounded=1;whiteSpace=wrap;html=1;fillColor=#f8cecc;strokeColor=#b85450;fontSize=13;" parent="cHDV28SgRl61PER8CA2b-149" vertex="1">
          <mxGeometry x="50.618571428571435" y="348.8957055214724" width="257.14285714285717" height="25.950920245398777" as="geometry" />
        </mxCell>
        <mxCell id="cHDV28SgRl61PER8CA2b-191" value="EL-1" style="shape=callout;whiteSpace=wrap;html=1;perimeter=calloutPerimeter;fillColor=#fad7ac;strokeColor=#b46504;position2=0.1;base=5;size=20;position=0.3;" parent="cHDV28SgRl61PER8CA2b-149" vertex="1">
          <mxGeometry x="259.55" y="20" width="49.39" height="38.57" as="geometry" />
        </mxCell>
        <mxCell id="cHDV28SgRl61PER8CA2b-196" value="EL-4" style="shape=callout;whiteSpace=wrap;html=1;perimeter=calloutPerimeter;fillColor=#fad7ac;strokeColor=#b46504;position2=1;base=9;size=20;position=0.3;" parent="cHDV28SgRl61PER8CA2b-149" vertex="1">
          <mxGeometry x="43.39999999999989" y="380" width="49" height="38.57" as="geometry" />
        </mxCell>
        <mxCell id="cHDV28SgRl61PER8CA2b-197" value="EL-2" style="shape=callout;whiteSpace=wrap;html=1;perimeter=calloutPerimeter;fillColor=#fad7ac;strokeColor=#b46504;position2=0;base=9;size=20;position=0.3;" parent="cHDV28SgRl61PER8CA2b-149" vertex="1">
          <mxGeometry x="305.9000000000002" y="73.87999999999998" width="49" height="38.57" as="geometry" />
        </mxCell>
        <mxCell id="cHDV28SgRl61PER8CA2b-204" value="EL-3" style="shape=callout;whiteSpace=wrap;html=1;perimeter=calloutPerimeter;fillColor=#fad7ac;strokeColor=#b46504;position2=0.88;base=9;size=20;position=0.3;" parent="cHDV28SgRl61PER8CA2b-149" vertex="1">
          <mxGeometry x="4.190000000000001" y="130" width="49" height="38.57" as="geometry" />
        </mxCell>
      </root>
    </mxGraphModel>
  </diagram>
</mxfile>
